<?xml version="1.0" encoding="iso-8859-1"?>
<!-- Generator: Adobe Illustrator 19.0.0, SVG Export Plug-In . SVG Version: 6.00 Build 0)  -->
<svg version="1.1" id="Capa_1" xmlns="http://www.w3.org/2000/svg" xmlns:xlink="http://www.w3.org/1999/xlink" x="0px" y="0px"
	 viewBox="0 0 490 490" style="enable-background:new 0 0 490 490;" xml:space="preserve">
<g>
	<g>
		<g>
			<path d="M373.3,120.7C373.3,54.6,315.8,1,245,1S116.7,54.6,116.7,120.7c0,1.6,0,3.1,0,4.7l128.3,28l128.3-28
				C373.3,123.9,373.3,122.3,373.3,120.7z"/>
			<ellipse cx="466.3" cy="286.4" rx="23.7" ry="50.2"/>
			<ellipse cx="23.7" cy="286.4" rx="23.7" ry="50.2"/>
			<path d="M23.7,216.4L23.7,216.4c25.3,0,43.6,29.6,43.6,70s-18.3,70-43.6,70l0,0v86.3L234.9,489V171.7L23.7,125.4V216.4z"/>
			<path d="M422.7,286.4c0-40.4,18.3-70,43.6-70v-91l-211.2,46.3v317l211.2-46.3V356C441,356,422.7,326.9,422.7,286.4z"/>
		</g>
	</g>
</g>
<g>
</g>
<g>
</g>
<g>
</g>
<g>
</g>
<g>
</g>
<g>
</g>
<g>
</g>
<g>
</g>
<g>
</g>
<g>
</g>
<g>
</g>
<g>
</g>
<g>
</g>
<g>
</g>
<g>
</g>
</svg>
